<svg width="1440" height="1114" viewBox="0 0 1440 1114" fill="none" xmlns="http://www.w3.org/2000/svg">
<path fill-rule="evenodd" clip-rule="evenodd" d="M76.172 -5.35567e-08L76.172 989L75.0001 989L75 0L76.172 -5.35567e-08Z" fill="url(#paint0_linear_289_10942)" fill-opacity="0.32"/>
<path fill-rule="evenodd" clip-rule="evenodd" d="M175.313 -5.35567e-08L175.313 989L174.141 989L174.141 0L175.313 -5.35567e-08Z" fill="url(#paint1_linear_289_10942)" fill-opacity="0.32"/>
<path fill-rule="evenodd" clip-rule="evenodd" d="M274.453 -5.35567e-08L274.453 989L273.281 989L273.281 0L274.453 -5.35567e-08Z" fill="url(#paint2_linear_289_10942)" fill-opacity="0.32"/>
<path fill-rule="evenodd" clip-rule="evenodd" d="M373.594 -4.79649e-08L373.594 989L372.422 989L372.422 0L373.594 -4.79649e-08Z" fill="url(#paint3_linear_289_10942)" fill-opacity="0.64"/>
<path fill-rule="evenodd" clip-rule="evenodd" d="M472.734 -4.79649e-08L472.734 989L471.562 989L471.562 0L472.734 -4.79649e-08Z" fill="url(#paint4_linear_289_10942)" fill-opacity="0.64"/>
<path fill-rule="evenodd" clip-rule="evenodd" d="M571.875 -4.79649e-08L571.875 989L570.703 989L570.703 0L571.875 -4.79649e-08Z" fill="url(#paint5_linear_289_10942)" fill-opacity="0.64"/>
<path fill-rule="evenodd" clip-rule="evenodd" d="M671.016 -4.79649e-08L671.016 989L669.844 989L669.844 0L671.016 -4.79649e-08Z" fill="url(#paint6_linear_289_10942)" fill-opacity="0.64"/>
<path fill-rule="evenodd" clip-rule="evenodd" d="M770.156 -4.79649e-08L770.156 989L768.984 989L768.984 0L770.156 -4.79649e-08Z" fill="url(#paint7_linear_289_10942)" fill-opacity="0.64"/>
<path fill-rule="evenodd" clip-rule="evenodd" d="M869.297 -4.79649e-08L869.297 989L868.125 989L868.125 0L869.297 -4.79649e-08Z" fill="url(#paint8_linear_289_10942)" fill-opacity="0.64"/>
<path fill-rule="evenodd" clip-rule="evenodd" d="M968.438 -4.79649e-08L968.438 989L967.266 989L967.266 0L968.438 -4.79649e-08Z" fill="url(#paint9_linear_289_10942)" fill-opacity="0.64"/>
<path fill-rule="evenodd" clip-rule="evenodd" d="M1067.58 -4.79649e-08L1067.58 989L1066.41 989L1066.41 0L1067.58 -4.79649e-08Z" fill="url(#paint10_linear_289_10942)" fill-opacity="0.64"/>
<path fill-rule="evenodd" clip-rule="evenodd" d="M1166.72 -4.79649e-08L1166.72 989L1165.55 989L1165.55 0L1166.72 -4.79649e-08Z" fill="url(#paint11_linear_289_10942)" fill-opacity="0.64"/>
<path fill-rule="evenodd" clip-rule="evenodd" d="M1265.86 -4.79649e-08L1265.86 989L1264.69 989L1264.69 0L1265.86 -4.79649e-08Z" fill="url(#paint12_linear_289_10942)" fill-opacity="0.64"/>
<path fill-rule="evenodd" clip-rule="evenodd" d="M1365 6.09916e-05L1365 989L1363.83 989L1363.83 6.10352e-05L1365 6.09916e-05Z" fill="url(#paint13_linear_289_10942)" fill-opacity="0.32"/>
<path fill-rule="evenodd" clip-rule="evenodd" d="M1440 227.172L2.32855e-09 227.172L0 226L1440 226L1440 227.172Z" fill="url(#paint14_linear_289_10942)" fill-opacity="0.32"/>
<path fill-rule="evenodd" clip-rule="evenodd" d="M1440 325.4L2.32855e-09 325.4L0 324.228L1440 324.228L1440 325.4Z" fill="url(#paint15_linear_289_10942)" fill-opacity="0.32"/>
<path fill-rule="evenodd" clip-rule="evenodd" d="M1440 423.629L-3.26325e-09 423.629L0 422.457L1440 422.457L1440 423.629Z" fill="url(#paint16_linear_289_10942)" fill-opacity="0.64"/>
<path fill-rule="evenodd" clip-rule="evenodd" d="M1440 521.857L-3.26325e-09 521.857L0 520.685L1440 520.685L1440 521.857Z" fill="url(#paint17_linear_289_10942)" fill-opacity="0.64"/>
<path fill-rule="evenodd" clip-rule="evenodd" d="M1440 620.086L-3.26325e-09 620.086L0 618.914L1440 618.914L1440 620.086Z" fill="url(#paint18_linear_289_10942)" fill-opacity="0.64"/>
<path fill-rule="evenodd" clip-rule="evenodd" d="M1440 718.314L-3.26325e-09 718.314L0 717.143L1440 717.143L1440 718.314Z" fill="url(#paint19_linear_289_10942)" fill-opacity="0.64"/>
<path fill-rule="evenodd" clip-rule="evenodd" d="M1440 816.543L-3.26325e-09 816.543L0 815.371L1440 815.371L1440 816.543Z" fill="url(#paint20_linear_289_10942)" fill-opacity="0.64"/>
<path fill-rule="evenodd" clip-rule="evenodd" d="M1440 914.772L-6.10384e-05 914.772L-6.10352e-05 913.6L1440 913.6L1440 914.772Z" fill="url(#paint21_linear_289_10942)" fill-opacity="0.64"/>
<path fill-rule="evenodd" clip-rule="evenodd" d="M1440 1013L-6.10384e-05 1013L-6.10352e-05 1011.83L1440 1011.83L1440 1013Z" fill="url(#paint22_linear_289_10942)" fill-opacity="0.32"/>
<g opacity="0.56" filter="url(#filter0_f_289_10942)">
<ellipse cx="971" cy="542" rx="313" ry="199" fill="url(#paint23_linear_289_10942)"/>
</g>

<rect x="717" y="430" width="507" height="282"/>
<defs>
<filter id="filter0_f_289_10942" x="458" y="143" width="1026" height="798" filterUnits="userSpaceOnUse" color-interpolation-filters="sRGB">
<feFlood flood-opacity="0" result="BackgroundImageFix"/>
<feBlend mode="normal" in="SourceGraphic" in2="BackgroundImageFix" result="shape"/>
<feGaussianBlur stdDeviation="100" result="effect1_foregroundBlur_289_10942"/>
</filter>
<filter id="filter1_b_289_10942" x="32" y="338" width="480" height="248" filterUnits="userSpaceOnUse" color-interpolation-filters="sRGB">
<feFlood flood-opacity="0" result="BackgroundImageFix"/>
<feGaussianBlur in="BackgroundImageFix" stdDeviation="16"/>
<feComposite in2="SourceAlpha" operator="in" result="effect1_backgroundBlur_289_10942"/>
<feBlend mode="normal" in="SourceGraphic" in2="effect1_backgroundBlur_289_10942" result="shape"/>
</filter>
<filter id="filter2_b_289_10942" x="32" y="551" width="480" height="144" filterUnits="userSpaceOnUse" color-interpolation-filters="sRGB">
<feFlood flood-opacity="0" result="BackgroundImageFix"/>
<feGaussianBlur in="BackgroundImageFix" stdDeviation="16"/>
<feComposite in2="SourceAlpha" operator="in" result="effect1_backgroundBlur_289_10942"/>
<feBlend mode="normal" in="SourceGraphic" in2="effect1_backgroundBlur_289_10942" result="shape"/>
</filter>
<filter id="filter3_b_289_10942" x="32" y="660" width="480" height="144" filterUnits="userSpaceOnUse" color-interpolation-filters="sRGB">
<feFlood flood-opacity="0" result="BackgroundImageFix"/>
<feGaussianBlur in="BackgroundImageFix" stdDeviation="16"/>
<feComposite in2="SourceAlpha" operator="in" result="effect1_backgroundBlur_289_10942"/>
<feBlend mode="normal" in="SourceGraphic" in2="effect1_backgroundBlur_289_10942" result="shape"/>
</filter>
<linearGradient id="paint0_linear_289_10942" x1="75.586" y1="-2.67785e-08" x2="75.586" y2="989" gradientUnits="userSpaceOnUse">
<stop stop-color="#0B0B0C"/>
<stop offset="0.215" stop-color="#222326"/>
<stop offset="0.765" stop-color="#222326"/>
<stop offset="1" stop-color="#0B0B0C"/>
</linearGradient>
<linearGradient id="paint1_linear_289_10942" x1="174.727" y1="-2.67785e-08" x2="174.727" y2="989" gradientUnits="userSpaceOnUse">
<stop stop-color="#0B0B0C"/>
<stop offset="0.215" stop-color="#222326"/>
<stop offset="0.765" stop-color="#222326"/>
<stop offset="1" stop-color="#0B0B0C"/>
</linearGradient>
<linearGradient id="paint2_linear_289_10942" x1="273.867" y1="-2.67785e-08" x2="273.867" y2="989" gradientUnits="userSpaceOnUse">
<stop stop-color="#0B0B0C"/>
<stop offset="0.215" stop-color="#222326"/>
<stop offset="0.765" stop-color="#222326"/>
<stop offset="1" stop-color="#0B0B0C"/>
</linearGradient>
<linearGradient id="paint3_linear_289_10942" x1="373.008" y1="-2.39826e-08" x2="373.008" y2="989" gradientUnits="userSpaceOnUse">
<stop stop-color="#0B0B0C"/>
<stop offset="0.215" stop-color="#222326"/>
<stop offset="0.765" stop-color="#222326"/>
<stop offset="1" stop-color="#0B0B0C"/>
</linearGradient>
<linearGradient id="paint4_linear_289_10942" x1="472.148" y1="-2.39826e-08" x2="472.148" y2="989" gradientUnits="userSpaceOnUse">
<stop stop-color="#0B0B0C"/>
<stop offset="0.215" stop-color="#222326"/>
<stop offset="0.765" stop-color="#222326"/>
<stop offset="1" stop-color="#0B0B0C"/>
</linearGradient>
<linearGradient id="paint5_linear_289_10942" x1="571.289" y1="-2.39826e-08" x2="571.289" y2="989" gradientUnits="userSpaceOnUse">
<stop stop-color="#0B0B0C"/>
<stop offset="0.215" stop-color="#222326"/>
<stop offset="0.765" stop-color="#222326"/>
<stop offset="1" stop-color="#0B0B0C"/>
</linearGradient>
<linearGradient id="paint6_linear_289_10942" x1="670.43" y1="-2.39826e-08" x2="670.43" y2="989" gradientUnits="userSpaceOnUse">
<stop stop-color="#0B0B0C"/>
<stop offset="0.215" stop-color="#222326"/>
<stop offset="0.765" stop-color="#222326"/>
<stop offset="1" stop-color="#0B0B0C"/>
</linearGradient>
<linearGradient id="paint7_linear_289_10942" x1="769.57" y1="-2.39826e-08" x2="769.57" y2="989" gradientUnits="userSpaceOnUse">
<stop stop-color="#0B0B0C"/>
<stop offset="0.215" stop-color="#222326"/>
<stop offset="0.765" stop-color="#222326"/>
<stop offset="1" stop-color="#0B0B0C"/>
</linearGradient>
<linearGradient id="paint8_linear_289_10942" x1="868.711" y1="-2.39826e-08" x2="868.711" y2="989" gradientUnits="userSpaceOnUse">
<stop stop-color="#0B0B0C"/>
<stop offset="0.215" stop-color="#222326"/>
<stop offset="0.765" stop-color="#222326"/>
<stop offset="1" stop-color="#0B0B0C"/>
</linearGradient>
<linearGradient id="paint9_linear_289_10942" x1="967.852" y1="-2.39826e-08" x2="967.852" y2="989" gradientUnits="userSpaceOnUse">
<stop stop-color="#0B0B0C"/>
<stop offset="0.215" stop-color="#222326"/>
<stop offset="0.765" stop-color="#222326"/>
<stop offset="1" stop-color="#0B0B0C"/>
</linearGradient>
<linearGradient id="paint10_linear_289_10942" x1="1066.99" y1="-2.39826e-08" x2="1066.99" y2="989" gradientUnits="userSpaceOnUse">
<stop stop-color="#0B0B0C"/>
<stop offset="0.215" stop-color="#222326"/>
<stop offset="0.765" stop-color="#222326"/>
<stop offset="1" stop-color="#0B0B0C"/>
</linearGradient>
<linearGradient id="paint11_linear_289_10942" x1="1166.13" y1="-2.39826e-08" x2="1166.13" y2="989" gradientUnits="userSpaceOnUse">
<stop stop-color="#0B0B0C"/>
<stop offset="0.215" stop-color="#222326"/>
<stop offset="0.765" stop-color="#222326"/>
<stop offset="1" stop-color="#0B0B0C"/>
</linearGradient>
<linearGradient id="paint12_linear_289_10942" x1="1265.27" y1="-2.39826e-08" x2="1265.27" y2="989" gradientUnits="userSpaceOnUse">
<stop stop-color="#0B0B0C"/>
<stop offset="0.215" stop-color="#222326"/>
<stop offset="0.765" stop-color="#222326"/>
<stop offset="1" stop-color="#0B0B0C"/>
</linearGradient>
<linearGradient id="paint13_linear_289_10942" x1="1364.41" y1="-2.17845e-08" x2="1364.41" y2="989" gradientUnits="userSpaceOnUse">
<stop stop-color="#0B0B0C"/>
<stop offset="0.215" stop-color="#222326"/>
<stop offset="0.765" stop-color="#222326"/>
<stop offset="1" stop-color="#0B0B0C"/>
</linearGradient>
<linearGradient id="paint14_linear_289_10942" x1="1440" y1="226.586" x2="1.16439e-09" y2="226.586" gradientUnits="userSpaceOnUse">
<stop stop-color="#0B0B0C"/>
<stop offset="0.215" stop-color="#222326"/>
<stop offset="0.765" stop-color="#222326"/>
<stop offset="1" stop-color="#0B0B0C"/>
</linearGradient>
<linearGradient id="paint15_linear_289_10942" x1="1440" y1="324.814" x2="1.16439e-09" y2="324.814" gradientUnits="userSpaceOnUse">
<stop stop-color="#0B0B0C"/>
<stop offset="0.215" stop-color="#222326"/>
<stop offset="0.765" stop-color="#222326"/>
<stop offset="1" stop-color="#0B0B0C"/>
</linearGradient>
<linearGradient id="paint16_linear_289_10942" x1="1440" y1="423.043" x2="-1.63138e-09" y2="423.043" gradientUnits="userSpaceOnUse">
<stop stop-color="#0B0B0C"/>
<stop offset="0.215" stop-color="#222326"/>
<stop offset="0.765" stop-color="#222326"/>
<stop offset="1" stop-color="#0B0B0C"/>
</linearGradient>
<linearGradient id="paint17_linear_289_10942" x1="1440" y1="521.271" x2="-1.63138e-09" y2="521.271" gradientUnits="userSpaceOnUse">
<stop stop-color="#0B0B0C"/>
<stop offset="0.215" stop-color="#222326"/>
<stop offset="0.765" stop-color="#222326"/>
<stop offset="1" stop-color="#0B0B0C"/>
</linearGradient>
<linearGradient id="paint18_linear_289_10942" x1="1440" y1="619.5" x2="-1.63138e-09" y2="619.5" gradientUnits="userSpaceOnUse">
<stop stop-color="#0B0B0C"/>
<stop offset="0.215" stop-color="#222326"/>
<stop offset="0.765" stop-color="#222326"/>
<stop offset="1" stop-color="#0B0B0C"/>
</linearGradient>
<linearGradient id="paint19_linear_289_10942" x1="1440" y1="717.728" x2="-1.63138e-09" y2="717.728" gradientUnits="userSpaceOnUse">
<stop stop-color="#0B0B0C"/>
<stop offset="0.215" stop-color="#222326"/>
<stop offset="0.765" stop-color="#222326"/>
<stop offset="1" stop-color="#0B0B0C"/>
</linearGradient>
<linearGradient id="paint20_linear_289_10942" x1="1440" y1="815.957" x2="-1.63138e-09" y2="815.957" gradientUnits="userSpaceOnUse">
<stop stop-color="#0B0B0C"/>
<stop offset="0.215" stop-color="#222326"/>
<stop offset="0.765" stop-color="#222326"/>
<stop offset="1" stop-color="#0B0B0C"/>
</linearGradient>
<linearGradient id="paint21_linear_289_10942" x1="1440" y1="914.186" x2="-6.10368e-05" y2="914.186" gradientUnits="userSpaceOnUse">
<stop stop-color="#0B0B0C"/>
<stop offset="0.215" stop-color="#222326"/>
<stop offset="0.765" stop-color="#222326"/>
<stop offset="1" stop-color="#0B0B0C"/>
</linearGradient>
<linearGradient id="paint22_linear_289_10942" x1="1440" y1="1012.41" x2="-6.10368e-05" y2="1012.41" gradientUnits="userSpaceOnUse">
<stop stop-color="#0B0B0C"/>
<stop offset="0.215" stop-color="#222326"/>
<stop offset="0.765" stop-color="#222326"/>
<stop offset="1" stop-color="#0B0B0C"/>
</linearGradient>
<linearGradient id="paint23_linear_289_10942" x1="658" y1="388.227" x2="1305.22" y2="432.786" gradientUnits="userSpaceOnUse">
<stop stop-color="#5659C4"/>
<stop offset="1" stop-color="#D8A1BC"/>
</linearGradient>
<linearGradient id="paint24_linear_289_10942" x1="572.483" y1="196.5" x2="859.361" y2="266.104" gradientUnits="userSpaceOnUse">
<stop stop-color="#CDCFFF"/>
<stop offset="0.505" stop-color="#FED6FF"/>
<stop offset="1" stop-color="#FFE5DF"/>
</linearGradient>
<linearGradient id="paint25_linear_289_10942" x1="272" y1="370" x2="272" y2="554" gradientUnits="userSpaceOnUse">
<stop stop-color="#222326"/>
<stop offset="1" stop-color="#131315"/>
</linearGradient>
<linearGradient id="paint26_linear_289_10942" x1="272" y1="370" x2="272" y2="554" gradientUnits="userSpaceOnUse">
<stop stop-color="#FDD4FC"/>
<stop offset="1" stop-color="#9A9DFF" stop-opacity="0"/>
</linearGradient>
<linearGradient id="paint27_linear_289_10942" x1="88" y1="397.636" x2="392.998" y2="551.162" gradientUnits="userSpaceOnUse">
<stop stop-color="#979BFF"/>
<stop offset="0.505" stop-color="#FED6FF"/>
<stop offset="1" stop-color="#FFAE9C"/>
</linearGradient>
<linearGradient id="paint28_linear_289_10942" x1="272" y1="583" x2="272" y2="663" gradientUnits="userSpaceOnUse">
<stop stop-color="#6C6E78"/>
<stop offset="1" stop-color="#131315"/>
</linearGradient>
</defs>
</svg>
