<svg width="16" height="14" viewBox="0 0 16 14" fill="none" xmlns="http://www.w3.org/2000/svg">
<path d="M11.9913 0C10.0952 3.31625 9.04762 4.97 7.99134 4.97C6.93506 4.97 5.88745 3.31625 4 0C5.88745 3.31625 6.78788 5.06625 6.25974 5.985C5.7316 6.90375 3.78355 7 0 7C3.92208 7 5.87013 7.09625 6.31169 8.11125C6.72727 9.05625 5.82684 10.7975 4 14C5.8961 10.6838 6.94372 9.03 8 9.03C9.05628 9.03 10.1039 10.6838 12 14C9.99134 10.4738 9.10822 8.72375 9.85281 7.84875C10.5108 7.07875 12.4502 7 16 7C12 7 10.0519 6.895 9.66234 5.81875C9.30736 4.85625 10.2078 3.12375 11.9913 0Z" fill="white"/>
</svg>
