<svg width="19" height="16" viewBox="0 0 19 16" fill="none" xmlns="http://www.w3.org/2000/svg">
<path d="M11.3256 8.6388C10.8942 9.12673 10.8174 9.73728 10.945 10.4223C10.4908 10.0457 10.0171 9.82 9.5 9.82C8.98471 9.82 8.51253 10.0441 8.05981 10.4183C8.06447 10.3932 8.06884 10.3681 8.07291 10.3432C8.14752 9.88728 8.12782 9.45218 7.95032 9.06312C7.75785 8.63799 7.41116 8.34001 6.97313 8.13095C6.87109 8.08225 6.76277 8.03769 6.64841 7.99686C6.71194 7.97408 6.77355 7.95016 6.83319 7.92505C7.2714 7.74059 7.63446 7.47851 7.8627 7.0964C8.09253 6.71161 8.14621 6.26956 8.0904 5.80199C8.08206 5.73204 8.07118 5.66082 8.0579 5.58834C8.50789 5.95862 8.97749 6.18 9.48972 6.18C10.007 6.18 10.4809 5.95416 10.9353 5.5772C10.8549 6.02021 10.8599 6.44364 11.0066 6.82748C11.2254 7.40781 11.7074 7.7663 12.3494 7.99718C11.9395 8.14364 11.5856 8.34601 11.3263 8.63802L11.3256 8.6388Z" stroke="white"/>
</svg>
