<svg xmlns="http://www.w3.org/2000/svg" width="124" height="36" viewBox="0 0 124 36" fill="none">
  <path d="M108.831 3.56151H108.23V4.16211V27.1675C108.23 29.5376 108.823 31.4254 110.114 32.7165C111.406 34.0076 113.293 34.6006 115.664 34.6006H119.772H119.969L120.128 34.4837L122.42 32.7972L122.664 32.6172V32.3135V29.5891V28.9885H122.064H115.88C115.309 28.9885 114.992 28.8463 114.813 28.6671C114.633 28.488 114.491 28.1704 114.491 27.6V16.3087H121.631H122.232V15.7081V11.2972V10.6966H121.631H114.491V4.16211V3.56151H113.891H108.831Z" fill="#B887FF" fill-opacity="0.16" stroke="url(#paint0_linear_98_10682)" stroke-width="1.20121"/>
  <path d="M83.2822 10.6968H82.6816V11.2974V27.1676C82.6816 29.5377 83.2746 31.4256 84.5657 32.7167C85.8568 34.0078 87.7447 34.6007 90.1147 34.6007H102.526H103.126V34.0001V11.2974V10.6968H102.526H97.4662H96.8656V11.2974V28.9887H90.331C89.7605 28.9887 89.4429 28.8464 89.2637 28.6673C89.0846 28.4881 88.9423 28.1705 88.9423 27.6001V11.2974V10.6968H88.3417H83.2822Z" fill="#B887FF" fill-opacity="0.16" stroke="url(#paint1_linear_98_10682)" stroke-width="1.20121"/>
  <path d="M57.0447 18.1297V27.1675C57.0447 29.5376 57.6376 31.4254 58.9287 32.7165C60.2198 34.0076 62.1077 34.6006 64.4778 34.6006H70.5319C72.8885 34.6006 74.7661 34.0071 76.0499 32.7152C77.333 31.424 77.9218 29.5366 77.9218 27.1675V18.1297C77.9218 15.7606 77.333 13.8732 76.0499 12.582C74.7661 11.2901 72.8885 10.6966 70.5319 10.6966H64.4778C62.1077 10.6966 60.2198 11.2896 58.9287 12.5807C57.6376 13.8718 57.0447 15.7596 57.0447 18.1297ZM64.694 28.9885C64.1235 28.9885 63.8059 28.8463 63.6268 28.6671C63.4476 28.488 63.3054 28.1704 63.3054 27.5999V17.6972C63.3054 17.1268 63.4476 16.8092 63.6268 16.63C63.8059 16.4509 64.1235 16.3087 64.694 16.3087H70.2724C70.8429 16.3087 71.1605 16.4509 71.3397 16.63C71.5188 16.8092 71.661 17.1268 71.661 17.6972V27.5999C71.661 28.1704 71.5188 28.488 71.3397 28.6671C71.1605 28.8463 70.8429 28.9885 70.2724 28.9885H64.694Z" fill="#B887FF" fill-opacity="0.16" stroke="url(#paint2_linear_98_10682)" stroke-width="1.20121"/>
  <path d="M32.0097 34V34.6006H32.6104H45.0646C47.4212 34.6006 49.2988 34.0072 50.5825 32.7152C51.8656 31.424 52.4544 29.5367 52.4544 27.1676V18.1297C52.4544 15.7606 51.8656 13.8733 50.5825 12.5821C49.2988 11.2901 47.4212 10.6967 45.0646 10.6967H38.2705V2V1.3994H37.6699H32.6104H32.0097V2V34ZM44.8051 28.9886H38.2705V16.3087H44.8051C45.3756 16.3087 45.6931 16.4509 45.8723 16.6301C46.0515 16.8093 46.1937 17.1268 46.1937 17.6973V27.6C46.1937 28.1705 46.0515 28.488 45.8723 28.6672C45.6931 28.8464 45.3756 28.9886 44.8051 28.9886Z" fill="#B887FF" fill-opacity="0.16" stroke="url(#paint3_linear_98_10682)" stroke-width="1.20121"/>
  <path d="M1.36446 32.7792L1.27636 33.0546L1.43679 33.2953L2.12869 34.3331L2.30699 34.6006H2.62842H6.99604H7.43622L7.56877 34.1808L9.51192 28.0276H20.9533L22.8549 34.1774L22.9857 34.6006H23.4287H27.8828H28.2157L28.3921 34.3183L29.0407 33.2804L29.188 33.0448L29.1037 32.7799L19.9361 3.97993L19.8029 3.56151H19.3638H11.1474H10.709L10.5754 3.97915L1.36446 32.7792ZM19.1491 22.0264H11.3596L15.2348 9.65717L19.1491 22.0264Z" fill="#B887FF" fill-opacity="0.16" stroke="url(#paint4_linear_98_10682)" stroke-width="1.20121"/>
  <defs>
    <linearGradient id="paint0_linear_98_10682" x1="111.061" y1="6.70511" x2="120.089" y2="6.89722" gradientUnits="userSpaceOnUse">
      <stop stop-color="#CDCFFF"/>
      <stop offset="0.505" stop-color="#FED6FF"/>
      <stop offset="1" stop-color="#FFE5DF"/>
    </linearGradient>
    <linearGradient id="paint1_linear_98_10682" x1="86.5248" y1="13.2323" x2="99.639" y2="13.7656" gradientUnits="userSpaceOnUse">
      <stop stop-color="#CDCFFF"/>
      <stop offset="0.505" stop-color="#FED6FF"/>
      <stop offset="1" stop-color="#FFE5DF"/>
    </linearGradient>
    <linearGradient id="paint2_linear_98_10682" x1="60.9607" y1="13.2321" x2="74.3686" y2="13.7897" gradientUnits="userSpaceOnUse">
      <stop stop-color="#CDCFFF"/>
      <stop offset="0.505" stop-color="#FED6FF"/>
      <stop offset="1" stop-color="#FFE5DF"/>
    </linearGradient>
    <linearGradient id="paint3_linear_98_10682" x1="35.8529" y1="4.72727" x2="48.9779" y2="5.10597" gradientUnits="userSpaceOnUse">
      <stop stop-color="#CDCFFF"/>
      <stop offset="0.505" stop-color="#FED6FF"/>
      <stop offset="1" stop-color="#FFE5DF"/>
    </linearGradient>
    <linearGradient id="paint4_linear_98_10682" x1="6.41778" y1="6.70511" x2="24.5388" y2="7.48005" gradientUnits="userSpaceOnUse">
      <stop stop-color="#CDCFFF"/>
      <stop offset="0.505" stop-color="#FED6FF"/>
      <stop offset="1" stop-color="#FFE5DF"/>
    </linearGradient>
  </defs>
</svg>