<svg width="133" height="40" viewBox="0 0 133 40" fill="none" xmlns="http://www.w3.org/2000/svg">
<rect width="133" height="40" rx="12" fill="url(#paint0_linear_592_379)"/>
<path d="M17.3537 21.718V16.622C17.3537 15.1007 18.1144 14.34 19.6357 14.34H23.4437L24.2697 14.984V15.894H19.6777C19.267 15.894 19.0617 16.0947 19.0617 16.496V21.844C19.0617 22.2453 19.267 22.446 19.6777 22.446H24.2697V23.356L23.4437 24H19.6357C18.1144 24 17.3537 23.2393 17.3537 21.718ZM25.9097 21.788V18.862C25.9097 17.3873 26.647 16.65 28.1217 16.65H30.0817C31.547 16.65 32.2797 17.3873 32.2797 18.862V21.788C32.2797 23.2627 31.547 24 30.0817 24H28.1217C26.647 24 25.9097 23.2627 25.9097 21.788ZM27.5477 21.928C27.5477 22.3573 27.7623 22.572 28.1917 22.572H29.9977C30.427 22.572 30.6417 22.3573 30.6417 21.928V18.722C30.6417 18.2927 30.427 18.078 29.9977 18.078H28.1917C27.7623 18.078 27.5477 18.2927 27.5477 18.722V21.928ZM34.2658 24V16.65H38.2978C39.7632 16.65 40.4958 17.3873 40.4958 18.862V24H38.8578V18.722C38.8578 18.2927 38.6432 18.078 38.2138 18.078H35.9038V24H34.2658ZM42.5373 24V16.65H46.5693C48.0346 16.65 48.7673 17.3873 48.7673 18.862V24H47.1293V18.722C47.1293 18.2927 46.9146 18.078 46.4853 18.078H44.1753V24H42.5373ZM50.6968 21.788V18.862C50.6968 17.3873 51.4341 16.65 52.9088 16.65H54.7288C56.1941 16.65 56.9268 17.3873 56.9268 18.862V20.934H52.3348V21.928C52.3348 22.3573 52.5495 22.572 52.9788 22.572H56.6468V23.454L55.9048 24H52.9088C51.4341 24 50.6968 23.2627 50.6968 21.788ZM52.3348 19.66H55.2888V18.722C55.2888 18.2927 55.0741 18.078 54.6448 18.078H52.9788C52.5495 18.078 52.3348 18.2927 52.3348 18.722V19.66ZM58.8042 21.788V18.862C58.8042 17.3873 59.5415 16.65 61.0162 16.65H63.6622L64.4042 17.196V18.078H61.0862C60.6569 18.078 60.4422 18.2927 60.4422 18.722V21.928C60.4422 22.3573 60.6569 22.572 61.0862 22.572H64.4042V23.454L63.6622 24H61.0162C59.5415 24 58.8042 23.2627 58.8042 21.788ZM66.0379 21.788V14.34H67.6759V16.65H70.1819V18.078H67.6759V21.928C67.6759 22.3573 67.8906 22.572 68.3199 22.572H70.3219V23.454L69.5799 24H68.2499C66.7753 24 66.0379 23.2627 66.0379 21.788ZM74.5964 14.676L74.8344 14.34H76.2344L77.9564 22.446H78.1104L79.9444 15.32H81.6384L83.4584 22.446H83.6264L85.3484 14.34H86.7484L86.9864 14.676L84.9844 24H82.2264L80.7844 18.316L79.3564 24H76.6124L74.5964 14.676ZM89.8436 24C88.369 24 87.6316 23.272 87.6316 21.816C87.6316 20.36 88.369 19.632 89.8436 19.632H91.9996V18.722C91.9996 18.2927 91.785 18.078 91.3556 18.078H88.3876V17.196L89.1156 16.65H91.4396C92.905 16.65 93.6376 17.3873 93.6376 18.862V24H89.8436ZM89.2696 21.928C89.2696 22.3573 89.4843 22.572 89.9136 22.572H91.9996V20.906H89.9136C89.4843 20.906 89.2696 21.116 89.2696 21.536V21.928ZM95.6239 21.564V13.64H97.2619V21.732C97.2619 22.3387 97.5699 22.6653 98.1859 22.712V24.126C96.4779 24.126 95.6239 23.272 95.6239 21.564ZM99.7118 21.564V13.64H101.35V21.732C101.35 22.3387 101.658 22.6653 102.274 22.712V24.126C100.566 24.126 99.7118 23.272 99.7118 21.564ZM103.744 21.788V18.862C103.744 17.3873 104.481 16.65 105.956 16.65H107.776C109.241 16.65 109.974 17.3873 109.974 18.862V20.934H105.382V21.928C105.382 22.3573 105.596 22.572 106.026 22.572H109.694V23.454L108.952 24H105.956C104.481 24 103.744 23.2627 103.744 21.788ZM105.382 19.66H108.336V18.722C108.336 18.2927 108.121 18.078 107.692 18.078H106.026C105.596 18.078 105.382 18.2927 105.382 18.722V19.66ZM111.907 21.788V14.34H113.545V16.65H116.051V18.078H113.545V21.928C113.545 22.3573 113.76 22.572 114.189 22.572H116.191V23.454L115.449 24H114.119C112.644 24 111.907 23.2627 111.907 21.788Z" fill="#131315"/>
<defs>
<linearGradient id="paint0_linear_592_379" x1="-3.27579e-07" y1="4.54546" x2="135.294" y2="24.236" gradientUnits="userSpaceOnUse">
<stop stop-color="#979BFF"/>
<stop offset="0.505" stop-color="#FED6FF"/>
<stop offset="1" stop-color="#FFAE9C"/>
</linearGradient>
</defs>
</svg>
