<svg xmlns="http://www.w3.org/2000/svg"  viewBox="0 0 1440 989" fill="none">
<g style="mix-blend-mode:plus-lighter">
<path fill-rule="evenodd" clip-rule="evenodd" d="M1440 102.172L2.32855e-09 102.172L0 101L1440 101L1440 102.172Z" fill="url(#paint0_linear_98_10761)" fill-opacity="0.32"/>
<path fill-rule="evenodd" clip-rule="evenodd" d="M1440 200.4L2.32855e-09 200.4L0 199.229L1440 199.229L1440 200.4Z" fill="url(#paint1_linear_98_10761)" fill-opacity="0.32"/>
<path fill-rule="evenodd" clip-rule="evenodd" d="M1440 298.629L-3.26325e-09 298.629L0 297.457L1440 297.457L1440 298.629Z" fill="url(#paint2_linear_98_10761)" fill-opacity="0.64"/>
<path fill-rule="evenodd" clip-rule="evenodd" d="M1440 396.857L-3.26325e-09 396.857L0 395.685L1440 395.685L1440 396.857Z" fill="url(#paint3_linear_98_10761)" fill-opacity="0.64"/>
<path fill-rule="evenodd" clip-rule="evenodd" d="M1440 495.086L-3.26325e-09 495.086L0 493.914L1440 493.914L1440 495.086Z" fill="url(#paint4_linear_98_10761)" fill-opacity="0.64"/>
<path fill-rule="evenodd" clip-rule="evenodd" d="M1440 593.314L-3.26325e-09 593.314L0 592.142L1440 592.142L1440 593.314Z" fill="url(#paint5_linear_98_10761)" fill-opacity="0.64"/>
<path fill-rule="evenodd" clip-rule="evenodd" d="M1440 691.543L-3.26325e-09 691.543L0 690.371L1440 690.371L1440 691.543Z" fill="url(#paint6_linear_98_10761)" fill-opacity="0.64"/>
<path fill-rule="evenodd" clip-rule="evenodd" d="M1440 789.772L-3.26325e-09 789.772L0 788.6L1440 788.6L1440 789.772Z" fill="url(#paint7_linear_98_10761)" fill-opacity="0.64"/>
<path fill-rule="evenodd" clip-rule="evenodd" d="M1440 888L-3.26325e-09 888L0 886.828L1440 886.828L1440 888Z" fill="url(#paint8_linear_98_10761)" fill-opacity="0.32"/>
</g>
<g style="mix-blend-mode:plus-lighter">
<path fill-rule="evenodd" clip-rule="evenodd" d="M75.1719 86L75.172 968L74 968L74 86L75.1719 86Z" fill="url(#paint9_linear_98_10761)" fill-opacity="0.32"/>
<path fill-rule="evenodd" clip-rule="evenodd" d="M174.466 86L174.466 968L173.294 968L173.294 86L174.466 86Z" fill="url(#paint10_linear_98_10761)" fill-opacity="0.32"/>
<path fill-rule="evenodd" clip-rule="evenodd" d="M273.761 86L273.761 968L272.589 968L272.589 86L273.761 86Z" fill="url(#paint11_linear_98_10761)" fill-opacity="0.32"/>
<path fill-rule="evenodd" clip-rule="evenodd" d="M373.055 86L373.055 968L371.883 968L371.883 86L373.055 86Z" fill="url(#paint12_linear_98_10761)" fill-opacity="0.64"/>
<path fill-rule="evenodd" clip-rule="evenodd" d="M472.35 86L472.35 968L471.178 968L471.178 86L472.35 86Z" fill="url(#paint13_linear_98_10761)" fill-opacity="0.64"/>
<path fill-rule="evenodd" clip-rule="evenodd" d="M571.644 86L571.644 968L570.472 968L570.472 86L571.644 86Z" fill="url(#paint14_linear_98_10761)" fill-opacity="0.64"/>
<path fill-rule="evenodd" clip-rule="evenodd" d="M670.939 86L670.939 968L669.767 968L669.767 86L670.939 86Z" fill="url(#paint15_linear_98_10761)" fill-opacity="0.64"/>
<path fill-rule="evenodd" clip-rule="evenodd" d="M770.233 86L770.233 968L769.061 968L769.061 86L770.233 86Z" fill="url(#paint16_linear_98_10761)" fill-opacity="0.64"/>
<path fill-rule="evenodd" clip-rule="evenodd" d="M869.528 86L869.528 968L868.356 968L868.356 86L869.528 86Z" fill="url(#paint17_linear_98_10761)" fill-opacity="0.64"/>
<path fill-rule="evenodd" clip-rule="evenodd" d="M968.822 86L968.822 968L967.65 968L967.65 86L968.822 86Z" fill="url(#paint18_linear_98_10761)" fill-opacity="0.64"/>
<path fill-rule="evenodd" clip-rule="evenodd" d="M1068.12 86L1068.12 968L1066.94 968L1066.94 86L1068.12 86Z" fill="url(#paint19_linear_98_10761)" fill-opacity="0.64"/>
<path fill-rule="evenodd" clip-rule="evenodd" d="M1167.41 86L1167.41 968L1166.24 968L1166.24 86L1167.41 86Z" fill="url(#paint20_linear_98_10761)" fill-opacity="0.64"/>
<path fill-rule="evenodd" clip-rule="evenodd" d="M1266.71 86L1266.71 968L1265.53 968L1265.53 86L1266.71 86Z" fill="url(#paint21_linear_98_10761)" fill-opacity="0.64"/>
<path fill-rule="evenodd" clip-rule="evenodd" d="M1366 86L1366 968L1364.83 968L1364.83 86L1366 86Z" fill="url(#paint22_linear_98_10761)" fill-opacity="0.32"/>
</g>





<path xmlns="http://www.w3.org/2000/svg" d="M204 697.994C200.862 698.279 199.058 698.542 197.951 699.408C196.65 700.423 196.342 702.282 196 706C195.646 702.145 195.327 700.298 193.9 699.306C192.793 698.53 191.001 698.279 188 698.006C191.127 697.721 192.942 697.458 194.037 696.603C195.35 695.577 195.658 693.729 196 690C196.32 693.433 196.605 695.269 197.666 696.329C198.728 697.39 200.576 697.686 204 697.994Z" fill="white"/>
<path d="M1065.2 274.004C1065.45 273.88 1065.68 273.735 1065.9 273.566L1065.9 273.565C1066.38 273.186 1066.74 272.725 1067 272.189C1067.2 272.581 1067.44 272.935 1067.75 273.245C1068.06 273.556 1068.42 273.799 1068.81 273.995C1068.55 274.122 1068.31 274.271 1068.09 274.444C1067.61 274.819 1067.26 275.277 1067 275.808C1066.7 275.214 1066.3 274.716 1065.73 274.323C1065.57 274.204 1065.39 274.099 1065.2 274.004Z" stroke="white" stroke-width="2"/>
<path d="M446.989 290C444.619 294.264 443.31 296.39 441.989 296.39C440.669 296.39 439.359 294.264 437 290C439.359 294.264 440.485 296.514 439.825 297.695C439.165 298.876 436.729 299 432 299C436.903 299 439.338 299.124 439.89 300.429C440.409 301.644 439.284 303.882 437 308C439.37 303.736 440.68 301.61 442 301.61C443.32 301.61 444.63 303.736 447 308C444.489 303.466 443.385 301.216 444.316 300.091C445.139 299.101 447.563 299 452 299C447 299 444.565 298.865 444.078 297.481C443.634 296.244 444.76 294.016 446.989 290Z" fill="white"/>
<path d="M1217.99 662C1216.1 665.316 1215.05 666.97 1213.99 666.97C1212.94 666.97 1211.89 665.316 1210 662C1211.89 665.316 1212.79 667.066 1212.26 667.985C1211.73 668.904 1209.78 669 1206 669C1209.92 669 1211.87 669.096 1212.31 670.111C1212.73 671.056 1211.83 672.797 1210 676C1211.9 672.684 1212.94 671.03 1214 671.03C1215.06 671.03 1216.1 672.684 1218 676C1215.99 672.474 1215.11 670.724 1215.85 669.849C1216.51 669.079 1218.45 669 1222 669C1218 669 1216.05 668.895 1215.66 667.819C1215.31 666.856 1216.21 665.124 1217.99 662Z" fill="white"/>
<defs>
<filter id="filter0_f_98_10761" x="-45" y="193" width="1508" height="680" filterUnits="userSpaceOnUse" color-interpolation-filters="sRGB">
<feFlood flood-opacity="0" result="BackgroundImageFix"/>
<feBlend mode="normal" in="SourceGraphic" in2="BackgroundImageFix" result="shape"/>
<feGaussianBlur stdDeviation="100" result="effect1_foregroundBlur_98_10761"/>
</filter>
<filter id="filter1_b_98_10761" x="932" y="145" width="644" height="632" filterUnits="userSpaceOnUse" color-interpolation-filters="sRGB">
<feFlood flood-opacity="0" result="BackgroundImageFix"/>
<feGaussianBlur in="BackgroundImageFix" stdDeviation="100"/>
<feComposite in2="SourceAlpha" operator="in" result="effect1_backgroundBlur_98_10761"/>
<feBlend mode="normal" in="SourceGraphic" in2="effect1_backgroundBlur_98_10761" result="shape"/>
</filter>
<filter id="filter2_b_98_10761" x="668" y="351" width="644" height="578" filterUnits="userSpaceOnUse" color-interpolation-filters="sRGB">
<feFlood flood-opacity="0" result="BackgroundImageFix"/>
<feGaussianBlur in="BackgroundImageFix" stdDeviation="100"/>
<feComposite in2="SourceAlpha" operator="in" result="effect1_backgroundBlur_98_10761"/>
<feBlend mode="normal" in="SourceGraphic" in2="effect1_backgroundBlur_98_10761" result="shape"/>
</filter>
<filter id="filter3_b_98_10761" x="132" y="351" width="644" height="666" filterUnits="userSpaceOnUse" color-interpolation-filters="sRGB">
<feFlood flood-opacity="0" result="BackgroundImageFix"/>
<feGaussianBlur in="BackgroundImageFix" stdDeviation="100"/>
<feComposite in2="SourceAlpha" operator="in" result="effect1_backgroundBlur_98_10761"/>
<feBlend mode="normal" in="SourceGraphic" in2="effect1_backgroundBlur_98_10761" result="shape"/>
</filter>
<filter id="filter4_b_98_10761" x="400" y="126" width="644" height="644" filterUnits="userSpaceOnUse" color-interpolation-filters="sRGB">
<feFlood flood-opacity="0" result="BackgroundImageFix"/>
<feGaussianBlur in="BackgroundImageFix" stdDeviation="100"/>
<feComposite in2="SourceAlpha" operator="in" result="effect1_backgroundBlur_98_10761"/>
<feBlend mode="normal" in="SourceGraphic" in2="effect1_backgroundBlur_98_10761" result="shape"/>
</filter>
<filter id="filter5_b_98_10761" x="-136" y="126" width="644" height="710" filterUnits="userSpaceOnUse" color-interpolation-filters="sRGB">
<feFlood flood-opacity="0" result="BackgroundImageFix"/>
<feGaussianBlur in="BackgroundImageFix" stdDeviation="100"/>
<feComposite in2="SourceAlpha" operator="in" result="effect1_backgroundBlur_98_10761"/>
<feBlend mode="normal" in="SourceGraphic" in2="effect1_backgroundBlur_98_10761" result="shape"/>
</filter>
<linearGradient id="paint0_linear_98_10761" x1="1440" y1="101.586" x2="1.16439e-09" y2="101.586" gradientUnits="userSpaceOnUse">
<stop stop-color="#0B0B0C"/>
<stop offset="0.215" stop-color="#222326"/>
<stop offset="0.765" stop-color="#222326"/>
<stop offset="1" stop-color="#0B0B0C"/>
</linearGradient>
<linearGradient id="paint1_linear_98_10761" x1="1440" y1="199.815" x2="1.16439e-09" y2="199.815" gradientUnits="userSpaceOnUse">
<stop stop-color="#0B0B0C"/>
<stop offset="0.215" stop-color="#222326"/>
<stop offset="0.765" stop-color="#222326"/>
<stop offset="1" stop-color="#0B0B0C"/>
</linearGradient>
<linearGradient id="paint2_linear_98_10761" x1="1440" y1="298.043" x2="-1.63138e-09" y2="298.043" gradientUnits="userSpaceOnUse">
<stop stop-color="#0B0B0C"/>
<stop offset="0.215" stop-color="#222326"/>
<stop offset="0.765" stop-color="#222326"/>
<stop offset="1" stop-color="#0B0B0C"/>
</linearGradient>
<linearGradient id="paint3_linear_98_10761" x1="1440" y1="396.271" x2="-1.63138e-09" y2="396.271" gradientUnits="userSpaceOnUse">
<stop stop-color="#0B0B0C"/>
<stop offset="0.215" stop-color="#222326"/>
<stop offset="0.765" stop-color="#222326"/>
<stop offset="1" stop-color="#0B0B0C"/>
</linearGradient>
<linearGradient id="paint4_linear_98_10761" x1="1440" y1="494.5" x2="-1.63138e-09" y2="494.5" gradientUnits="userSpaceOnUse">
<stop stop-color="#0B0B0C"/>
<stop offset="0.215" stop-color="#222326"/>
<stop offset="0.765" stop-color="#222326"/>
<stop offset="1" stop-color="#0B0B0C"/>
</linearGradient>
<linearGradient id="paint5_linear_98_10761" x1="1440" y1="592.728" x2="-1.63138e-09" y2="592.728" gradientUnits="userSpaceOnUse">
<stop stop-color="#0B0B0C"/>
<stop offset="0.215" stop-color="#222326"/>
<stop offset="0.765" stop-color="#222326"/>
<stop offset="1" stop-color="#0B0B0C"/>
</linearGradient>
<linearGradient id="paint6_linear_98_10761" x1="1440" y1="690.957" x2="-1.63138e-09" y2="690.957" gradientUnits="userSpaceOnUse">
<stop stop-color="#0B0B0C"/>
<stop offset="0.215" stop-color="#222326"/>
<stop offset="0.765" stop-color="#222326"/>
<stop offset="1" stop-color="#0B0B0C"/>
</linearGradient>
<linearGradient id="paint7_linear_98_10761" x1="1440" y1="789.186" x2="-1.63138e-09" y2="789.186" gradientUnits="userSpaceOnUse">
<stop stop-color="#0B0B0C"/>
<stop offset="0.215" stop-color="#222326"/>
<stop offset="0.765" stop-color="#222326"/>
<stop offset="1" stop-color="#0B0B0C"/>
</linearGradient>
<linearGradient id="paint8_linear_98_10761" x1="1440" y1="887.414" x2="-1.63138e-09" y2="887.414" gradientUnits="userSpaceOnUse">
<stop stop-color="#0B0B0C"/>
<stop offset="0.215" stop-color="#222326"/>
<stop offset="0.765" stop-color="#222326"/>
<stop offset="1" stop-color="#0B0B0C"/>
</linearGradient>
<linearGradient id="paint9_linear_98_10761" x1="74.5859" y1="86" x2="74.586" y2="968" gradientUnits="userSpaceOnUse">
<stop stop-color="#0B0B0C"/>
<stop offset="0.215" stop-color="#222326"/>
<stop offset="0.765" stop-color="#222326"/>
<stop offset="1" stop-color="#0B0B0C"/>
</linearGradient>
<linearGradient id="paint10_linear_98_10761" x1="173.88" y1="86" x2="173.88" y2="968" gradientUnits="userSpaceOnUse">
<stop stop-color="#0B0B0C"/>
<stop offset="0.215" stop-color="#222326"/>
<stop offset="0.765" stop-color="#222326"/>
<stop offset="1" stop-color="#0B0B0C"/>
</linearGradient>
<linearGradient id="paint11_linear_98_10761" x1="273.175" y1="86" x2="273.175" y2="968" gradientUnits="userSpaceOnUse">
<stop stop-color="#0B0B0C"/>
<stop offset="0.215" stop-color="#222326"/>
<stop offset="0.765" stop-color="#222326"/>
<stop offset="1" stop-color="#0B0B0C"/>
</linearGradient>
<linearGradient id="paint12_linear_98_10761" x1="372.469" y1="86" x2="372.469" y2="968" gradientUnits="userSpaceOnUse">
<stop stop-color="#0B0B0C"/>
<stop offset="0.215" stop-color="#222326"/>
<stop offset="0.765" stop-color="#222326"/>
<stop offset="1" stop-color="#0B0B0C"/>
</linearGradient>
<linearGradient id="paint13_linear_98_10761" x1="471.764" y1="86" x2="471.764" y2="968" gradientUnits="userSpaceOnUse">
<stop stop-color="#0B0B0C"/>
<stop offset="0.215" stop-color="#222326"/>
<stop offset="0.765" stop-color="#222326"/>
<stop offset="1" stop-color="#0B0B0C"/>
</linearGradient>
<linearGradient id="paint14_linear_98_10761" x1="571.058" y1="86" x2="571.058" y2="968" gradientUnits="userSpaceOnUse">
<stop stop-color="#0B0B0C"/>
<stop offset="0.215" stop-color="#222326"/>
<stop offset="0.765" stop-color="#222326"/>
<stop offset="1" stop-color="#0B0B0C"/>
</linearGradient>
<linearGradient id="paint15_linear_98_10761" x1="670.353" y1="86" x2="670.353" y2="968" gradientUnits="userSpaceOnUse">
<stop stop-color="#0B0B0C"/>
<stop offset="0.215" stop-color="#222326"/>
<stop offset="0.765" stop-color="#222326"/>
<stop offset="1" stop-color="#0B0B0C"/>
</linearGradient>
<linearGradient id="paint16_linear_98_10761" x1="769.647" y1="86" x2="769.647" y2="968" gradientUnits="userSpaceOnUse">
<stop stop-color="#0B0B0C"/>
<stop offset="0.215" stop-color="#222326"/>
<stop offset="0.765" stop-color="#222326"/>
<stop offset="1" stop-color="#0B0B0C"/>
</linearGradient>
<linearGradient id="paint17_linear_98_10761" x1="868.942" y1="86" x2="868.942" y2="968" gradientUnits="userSpaceOnUse">
<stop stop-color="#0B0B0C"/>
<stop offset="0.215" stop-color="#222326"/>
<stop offset="0.765" stop-color="#222326"/>
<stop offset="1" stop-color="#0B0B0C"/>
</linearGradient>
<linearGradient id="paint18_linear_98_10761" x1="968.236" y1="86" x2="968.236" y2="968" gradientUnits="userSpaceOnUse">
<stop stop-color="#0B0B0C"/>
<stop offset="0.215" stop-color="#222326"/>
<stop offset="0.765" stop-color="#222326"/>
<stop offset="1" stop-color="#0B0B0C"/>
</linearGradient>
<linearGradient id="paint19_linear_98_10761" x1="1067.53" y1="86" x2="1067.53" y2="968" gradientUnits="userSpaceOnUse">
<stop stop-color="#0B0B0C"/>
<stop offset="0.215" stop-color="#222326"/>
<stop offset="0.765" stop-color="#222326"/>
<stop offset="1" stop-color="#0B0B0C"/>
</linearGradient>
<linearGradient id="paint20_linear_98_10761" x1="1166.82" y1="86" x2="1166.82" y2="968" gradientUnits="userSpaceOnUse">
<stop stop-color="#0B0B0C"/>
<stop offset="0.215" stop-color="#222326"/>
<stop offset="0.765" stop-color="#222326"/>
<stop offset="1" stop-color="#0B0B0C"/>
</linearGradient>
<linearGradient id="paint21_linear_98_10761" x1="1266.12" y1="86" x2="1266.12" y2="968" gradientUnits="userSpaceOnUse">
<stop stop-color="#0B0B0C"/>
<stop offset="0.215" stop-color="#222326"/>
<stop offset="0.765" stop-color="#222326"/>
<stop offset="1" stop-color="#0B0B0C"/>
</linearGradient>
<linearGradient id="paint22_linear_98_10761" x1="1365.41" y1="86" x2="1365.41" y2="968" gradientUnits="userSpaceOnUse">
<stop stop-color="#0B0B0C"/>
<stop offset="0.215" stop-color="#222326"/>
<stop offset="0.765" stop-color="#222326"/>
<stop offset="1" stop-color="#0B0B0C"/>
</linearGradient>
<linearGradient id="paint23_linear_98_10761" x1="155" y1="424.818" x2="1272.46" y2="618.372" gradientUnits="userSpaceOnUse">
<stop stop-color="#5659C4"/>
<stop offset="1" stop-color="#D8A1BC"/>
</linearGradient>
<linearGradient id="paint24_linear_98_10761" x1="660.33" y1="172.75" x2="778.644" y2="195.973" gradientUnits="userSpaceOnUse">
<stop stop-color="#CDCFFF"/>
<stop offset="0.505" stop-color="#FED6FF"/>
<stop offset="1" stop-color="#FFE5DF"/>
</linearGradient>
<linearGradient id="paint25_linear_98_10761" x1="1424.8" y1="463.953" x2="1074.33" y2="463.953" gradientUnits="userSpaceOnUse">
<stop stop-color="white" stop-opacity="0.05"/>
<stop offset="0.666667" stop-color="#282828" stop-opacity="0.622603"/>
<stop offset="1" stop-color="white" stop-opacity="0.05"/>
</linearGradient>
<linearGradient id="paint26_linear_98_10761" x1="1160.8" y1="642.265" x2="810.327" y2="642.265" gradientUnits="userSpaceOnUse">
<stop stop-color="white" stop-opacity="0.05"/>
<stop offset="0.666667" stop-color="#282828" stop-opacity="0.622603"/>
<stop offset="1" stop-color="white" stop-opacity="0.05"/>
</linearGradient>
<linearGradient id="paint27_linear_98_10761" x1="624.8" y1="687.385" x2="274.327" y2="687.385" gradientUnits="userSpaceOnUse">
<stop stop-color="white" stop-opacity="0.05"/>
<stop offset="0.666667" stop-color="#282828" stop-opacity="0.622603"/>
<stop offset="1" stop-color="white" stop-opacity="0.05"/>
</linearGradient>
<linearGradient id="paint28_linear_98_10761" x1="892.8" y1="451.105" x2="542.327" y2="451.105" gradientUnits="userSpaceOnUse">
<stop stop-color="white" stop-opacity="0.05"/>
<stop offset="0.666667" stop-color="#282828" stop-opacity="0.622603"/>
<stop offset="1" stop-color="white" stop-opacity="0.05"/>
</linearGradient>
<linearGradient id="paint29_linear_98_10761" x1="356.8" y1="484.945" x2="6.32728" y2="484.945" gradientUnits="userSpaceOnUse">
<stop stop-color="white" stop-opacity="0.05"/>
<stop offset="0.666667" stop-color="#282828" stop-opacity="0.622603"/>
<stop offset="1" stop-color="white" stop-opacity="0.05"/>
</linearGradient>
</defs>
</svg>