<svg width="32" height="30" viewBox="0 0 32 30" fill="none" xmlns="http://www.w3.org/2000/svg">
<g clip-path="url(#clip0_592_917)">
<path fill-rule="evenodd" clip-rule="evenodd" d="M16 0L20.3629 5.34153L16 8.19269V0Z" fill="#B887FF"/>
<path fill-rule="evenodd" clip-rule="evenodd" d="M21.0908 6.2312L19.1878 7.47021L20.6418 9.25037L16 12.2726V16.3638L24.7267 10.6832L21.0908 6.2312Z" fill="#B887FF"/>
<path fill-rule="evenodd" clip-rule="evenodd" d="M16 9.54507L18.2363 8.0896L18.9633 8.9802L16 10.9088V9.54507Z" fill="#B887FF"/>
<path fill-rule="evenodd" clip-rule="evenodd" d="M25.4537 11.5725L23.5507 12.8115L29.3695 19.9332L16 28.6361V29.9999L31.9995 19.5848L25.4537 11.5725Z" fill="#B887FF"/>
<path fill-rule="evenodd" clip-rule="evenodd" d="M16 17.7089L22.5992 13.4312L24.0542 15.2113L16 20.4549V17.7089Z" fill="#B887FF"/>
<path fill-rule="evenodd" clip-rule="evenodd" d="M24.7811 16.1018L25.5091 16.9914L16 23.1926V21.8175L24.7811 16.1018Z" fill="#B887FF"/>
<path fill-rule="evenodd" clip-rule="evenodd" d="M16 24.5451L26.2361 17.8821L27.69 19.6622L16 27.2725V24.5451Z" fill="#B887FF"/>
<path fill-rule="evenodd" clip-rule="evenodd" d="M16.0001 0L11.6362 5.34153L16.0001 8.19269V0Z" fill="#D7BBFF"/>
<path fill-rule="evenodd" clip-rule="evenodd" d="M10.9084 6.23096L12.8114 7.46996L11.3574 9.25013L16.0002 12.2724V16.3636L7.27246 10.6829L10.9084 6.23096Z" fill="#D7BBFF"/>
<path fill-rule="evenodd" clip-rule="evenodd" d="M15.9999 9.54507L13.7626 8.0896L13.0356 8.9802L15.9999 10.9088V9.54507Z" fill="#D7BBFF"/>
<path fill-rule="evenodd" clip-rule="evenodd" d="M6.5453 11.5725L8.44831 12.8115L2.6295 19.9332L16 28.6361V29.9999L-0.000488281 19.5848L6.5453 11.5725Z" fill="#D7BBFF"/>
<path fill-rule="evenodd" clip-rule="evenodd" d="M16 17.7089L9.39977 13.4312L7.94482 15.2113L16 20.4549V17.7089Z" fill="#D7BBFF"/>
<path fill-rule="evenodd" clip-rule="evenodd" d="M7.21819 16.1018L6.49121 16.9914L16.0003 23.1926V21.8175L7.21819 16.1018Z" fill="#D7BBFF"/>
<path fill-rule="evenodd" clip-rule="evenodd" d="M16.0006 24.5451L5.76353 17.8821L4.30957 19.6622L16.0006 27.2725V24.5451Z" fill="#D7BBFF"/>
</g>
<defs>
<clipPath id="clip0_592_917">
<rect width="32" height="30" fill="white"/>
</clipPath>
</defs>
</svg>
