<svg width="32" height="30" viewBox="0 0 32 30" fill="none" xmlns="http://www.w3.org/2000/svg">
<g clip-path="url(#clip0_241_1029)">
<path fill-rule="evenodd" clip-rule="evenodd" d="M15.9999 0L20.3628 5.34153L15.9999 8.19269V0Z" fill="#B887FF"/>
<path fill-rule="evenodd" clip-rule="evenodd" d="M21.0907 6.2312L19.1877 7.47021L20.6417 9.25037L15.9999 12.2726V16.3638L24.7266 10.6832L21.0907 6.2312Z" fill="#B887FF"/>
<path fill-rule="evenodd" clip-rule="evenodd" d="M15.9999 9.54507L18.2362 8.0896L18.9632 8.9802L15.9999 10.9088V9.54507Z" fill="#B887FF"/>
<path fill-rule="evenodd" clip-rule="evenodd" d="M25.4536 11.5725L23.5506 12.8115L29.3694 19.9332L15.9999 28.6361V29.9999L31.9994 19.5848L25.4536 11.5725Z" fill="#B887FF"/>
<path fill-rule="evenodd" clip-rule="evenodd" d="M15.9999 17.7089L22.5991 13.4312L24.054 15.2113L15.9999 20.4549V17.7089Z" fill="#B887FF"/>
<path fill-rule="evenodd" clip-rule="evenodd" d="M24.781 16.1018L25.509 16.9914L15.9999 23.1926V21.8175L24.781 16.1018Z" fill="#B887FF"/>
<path fill-rule="evenodd" clip-rule="evenodd" d="M15.9999 24.5451L26.236 17.8821L27.6899 19.6622L15.9999 27.2725V24.5451Z" fill="#B887FF"/>
<path fill-rule="evenodd" clip-rule="evenodd" d="M16 0L11.6361 5.34153L16 8.19269V0Z" fill="#D7BBFF"/>
<path fill-rule="evenodd" clip-rule="evenodd" d="M10.9082 6.23096L12.8112 7.46996L11.3573 9.25013L16.0001 12.2724V16.3636L7.27234 10.6829L10.9082 6.23096Z" fill="#D7BBFF"/>
<path fill-rule="evenodd" clip-rule="evenodd" d="M15.9998 9.54507L13.7625 8.0896L13.0355 8.9802L15.9998 10.9088V9.54507Z" fill="#D7BBFF"/>
<path fill-rule="evenodd" clip-rule="evenodd" d="M6.54518 11.5725L8.44819 12.8115L2.62938 19.9332L15.9999 28.6361V29.9999L-0.000610352 19.5848L6.54518 11.5725Z" fill="#D7BBFF"/>
<path fill-rule="evenodd" clip-rule="evenodd" d="M16 17.7089L9.39977 13.4312L7.94482 15.2113L16 20.4549V17.7089Z" fill="#D7BBFF"/>
<path fill-rule="evenodd" clip-rule="evenodd" d="M7.21795 16.1018L6.49097 16.9914L16.0001 23.1926V21.8175L7.21795 16.1018Z" fill="#D7BBFF"/>
<path fill-rule="evenodd" clip-rule="evenodd" d="M16.0005 24.5451L5.76341 17.8821L4.30945 19.6622L16.0005 27.2725V24.5451Z" fill="#D7BBFF"/>
</g>
<defs>
<clipPath id="clip0_241_1029">
<rect width="32" height="30" fill="white"/>
</clipPath>
</defs>
</svg>
