<svg xmlns="http://www.w3.org/2000/svg" width="20" height="18" viewBox="0 0 20 18" fill="none">
<path d="M14.9892 0C12.619 4.26375 11.3095 6.39 9.98918 6.39C8.66883 6.39 7.35931 4.26375 5 0C7.35931 4.26375 8.48485 6.51375 7.82468 7.695C7.1645 8.87625 4.72944 9 0 9C4.9026 9 7.33766 9.12375 7.88961 10.4287C8.40909 11.6437 7.28355 13.8825 5 18C7.37013 13.7362 8.67965 11.61 10 11.61C11.3203 11.61 12.6299 13.7362 15 18C12.4892 13.4662 11.3853 11.2162 12.316 10.0912C13.1385 9.10125 15.5628 9 20 9C15 9 12.5649 8.865 12.0779 7.48125C11.6342 6.24375 12.7597 4.01625 14.9892 0Z" fill="white"/>
</svg>